<svg width="228" height="74" viewBox="0 0 228 74" fill="none" xmlns="http://www.w3.org/2000/svg">
<path d="M106.968 30.512C105.325 30.512 104.067 31.0133 103.192 32.016C102.317 33.0187 101.88 34.4373 101.88 36.272C101.88 38.128 102.36 39.5573 103.32 40.56C104.301 41.5627 105.613 42.064 107.256 42.064C108.131 42.064 108.867 41.9467 109.464 41.712C110.083 41.4773 110.669 41.2107 111.224 40.912C111.587 41.2107 111.864 41.5733 112.056 42C112.269 42.4053 112.376 42.8853 112.376 43.44C112.376 44.3147 111.885 45.0613 110.904 45.68C109.944 46.2773 108.472 46.576 106.488 46.576C105.059 46.576 103.715 46.3733 102.456 45.968C101.197 45.5627 100.099 44.944 99.16 44.112C98.2213 43.2587 97.4747 42.192 96.92 40.912C96.3867 39.6107 96.12 38.064 96.12 36.272C96.12 34.608 96.376 33.1467 96.888 31.888C97.4213 30.608 98.136 29.5307 99.032 28.656C99.9493 27.7813 101.016 27.12 102.232 26.672C103.448 26.224 104.749 26 106.136 26C108.099 26 109.613 26.32 110.68 26.96C111.768 27.6 112.312 28.4213 112.312 29.424C112.312 29.9787 112.173 30.4587 111.896 30.864C111.619 31.2693 111.299 31.5893 110.936 31.824C110.381 31.4613 109.784 31.152 109.144 30.896C108.525 30.64 107.8 30.512 106.968 30.512ZM130.635 38.224C130.635 39.5467 130.432 40.7307 130.027 41.776C129.622 42.8 129.046 43.664 128.299 44.368C127.574 45.072 126.699 45.6053 125.675 45.968C124.651 46.3307 123.51 46.512 122.251 46.512C120.992 46.512 119.851 46.32 118.827 45.936C117.803 45.552 116.918 45.008 116.171 44.304C115.446 43.5787 114.88 42.704 114.475 41.68C114.07 40.656 113.867 39.504 113.867 38.224C113.867 36.9653 114.07 35.824 114.475 34.8C114.88 33.776 115.446 32.912 116.171 32.208C116.918 31.4827 117.803 30.928 118.827 30.544C119.851 30.16 120.992 29.968 122.251 29.968C123.51 29.968 124.651 30.1707 125.675 30.576C126.699 30.96 127.574 31.5147 128.299 32.24C129.046 32.944 129.622 33.808 130.027 34.832C130.432 35.856 130.635 36.9867 130.635 38.224ZM119.435 38.224C119.435 39.5253 119.68 40.528 120.171 41.232C120.683 41.9147 121.387 42.256 122.283 42.256C123.179 42.256 123.862 41.904 124.331 41.2C124.822 40.496 125.067 39.504 125.067 38.224C125.067 36.944 124.822 35.9627 124.331 35.28C123.84 34.576 123.147 34.224 122.251 34.224C121.355 34.224 120.662 34.576 120.171 35.28C119.68 35.9627 119.435 36.944 119.435 38.224ZM143.283 45.584C142.984 45.8187 142.547 46.0107 141.971 46.16C141.395 46.3093 140.744 46.384 140.019 46.384C139.187 46.384 138.461 46.2773 137.843 46.064C137.245 45.8507 136.829 45.5093 136.595 45.04C136.403 44.6773 136.168 44.176 135.891 43.536C135.635 42.8747 135.357 42.1493 135.059 41.36C134.76 40.5493 134.451 39.6853 134.131 38.768C133.811 37.8507 133.501 36.944 133.203 36.048C132.925 35.152 132.669 34.288 132.435 33.456C132.2 32.624 132.008 31.888 131.859 31.248C132.157 30.9493 132.552 30.6933 133.043 30.48C133.555 30.2453 134.109 30.128 134.707 30.128C135.453 30.128 136.061 30.288 136.531 30.608C137.021 30.9067 137.384 31.4827 137.619 32.336L138.867 37.232C139.101 38.192 139.325 39.0667 139.539 39.856C139.752 40.624 139.912 41.2213 140.019 41.648H140.179C140.584 40.0693 141.011 38.32 141.459 36.4C141.907 34.48 142.312 32.592 142.675 30.736C143.037 30.544 143.443 30.3947 143.891 30.288C144.36 30.1813 144.808 30.128 145.235 30.128C145.981 30.128 146.611 30.288 147.123 30.608C147.635 30.928 147.891 31.4827 147.891 32.272C147.891 32.6133 147.805 33.1147 147.635 33.776C147.485 34.416 147.283 35.152 147.027 35.984C146.792 36.7947 146.504 37.6587 146.163 38.576C145.843 39.4933 145.512 40.3893 145.171 41.264C144.829 42.1387 144.488 42.96 144.147 43.728C143.827 44.4747 143.539 45.0933 143.283 45.584ZM158.388 46.512C157.129 46.512 155.956 46.3413 154.868 46C153.801 45.6373 152.863 45.104 152.052 44.4C151.263 43.696 150.633 42.8107 150.164 41.744C149.716 40.6773 149.492 39.4293 149.492 38C149.492 36.592 149.716 35.3867 150.164 34.384C150.633 33.36 151.241 32.528 151.988 31.888C152.735 31.2267 153.588 30.7467 154.548 30.448C155.508 30.128 156.489 29.968 157.492 29.968C158.623 29.968 159.647 30.1387 160.564 30.48C161.503 30.8213 162.303 31.2907 162.964 31.888C163.647 32.4853 164.169 33.2 164.532 34.032C164.916 34.864 165.108 35.7707 165.108 36.752C165.108 37.4773 164.905 38.032 164.5 38.416C164.095 38.8 163.529 39.0453 162.804 39.152L154.9 40.336C155.135 41.04 155.615 41.5733 156.34 41.936C157.065 42.2773 157.897 42.448 158.836 42.448C159.711 42.448 160.532 42.3413 161.3 42.128C162.089 41.8933 162.729 41.6267 163.22 41.328C163.561 41.5413 163.849 41.84 164.084 42.224C164.319 42.608 164.436 43.0133 164.436 43.44C164.436 44.4 163.988 45.1147 163.092 45.584C162.409 45.9467 161.641 46.192 160.788 46.32C159.935 46.448 159.135 46.512 158.388 46.512ZM157.492 33.936C156.98 33.936 156.532 34.0213 156.148 34.192C155.785 34.3627 155.487 34.5867 155.252 34.864C155.017 35.12 154.836 35.4187 154.708 35.76C154.601 36.08 154.537 36.4107 154.516 36.752L159.988 35.856C159.924 35.4293 159.689 35.0027 159.284 34.576C158.879 34.1493 158.281 33.936 157.492 33.936ZM173.167 45.968C172.953 46.032 172.612 46.096 172.143 46.16C171.695 46.224 171.225 46.256 170.735 46.256C170.265 46.256 169.839 46.224 169.455 46.16C169.092 46.096 168.783 45.968 168.527 45.776C168.271 45.584 168.068 45.328 167.919 45.008C167.791 44.6667 167.727 44.2293 167.727 43.696V34.096C167.727 33.6053 167.812 33.1893 167.983 32.848C168.175 32.4853 168.441 32.1653 168.783 31.888C169.124 31.6107 169.54 31.3653 170.031 31.152C170.543 30.9173 171.087 30.7147 171.663 30.544C172.239 30.3733 172.836 30.2453 173.455 30.16C174.073 30.0533 174.692 30 175.311 30C176.335 30 177.145 30.2027 177.743 30.608C178.34 30.992 178.639 31.632 178.639 32.528C178.639 32.8267 178.596 33.1253 178.511 33.424C178.425 33.7013 178.319 33.9573 178.191 34.192C177.743 34.192 177.284 34.2133 176.815 34.256C176.345 34.2987 175.887 34.3627 175.439 34.448C174.991 34.5333 174.564 34.6293 174.159 34.736C173.775 34.8213 173.444 34.928 173.167 35.056V45.968ZM188.563 35.6C189.459 35.6 190.141 35.3973 190.611 34.992C191.101 34.5653 191.347 33.9253 191.347 33.072C191.347 32.2613 191.091 31.6427 190.579 31.216C190.088 30.768 189.363 30.544 188.403 30.544C188.061 30.544 187.773 30.5547 187.539 30.576C187.325 30.576 187.101 30.5973 186.867 30.64V35.6H188.563ZM186.899 45.872C186.664 45.936 186.291 46 185.779 46.064C185.288 46.128 184.797 46.16 184.307 46.16C183.816 46.16 183.379 46.1173 182.995 46.032C182.632 45.968 182.323 45.84 182.067 45.648C181.811 45.456 181.619 45.1893 181.491 44.848C181.363 44.5067 181.299 44.0587 181.299 43.504V28.432C181.299 27.984 181.416 27.6427 181.651 27.408C181.907 27.152 182.248 26.9493 182.675 26.8C183.4 26.544 184.221 26.3627 185.139 26.256C186.077 26.128 187.016 26.064 187.955 26.064C190.899 26.064 193.149 26.6933 194.707 27.952C196.264 29.2107 197.043 30.9173 197.043 33.072C197.043 34.1173 196.872 35.0667 196.531 35.92C196.211 36.752 195.72 37.4773 195.059 38.096C194.419 38.6933 193.597 39.1627 192.595 39.504C191.613 39.824 190.472 39.984 189.171 39.984H186.899V45.872ZM204.292 45.968C204.078 46.032 203.737 46.096 203.268 46.16C202.82 46.224 202.35 46.256 201.86 46.256C201.39 46.256 200.964 46.224 200.58 46.16C200.217 46.096 199.908 45.968 199.652 45.776C199.396 45.584 199.193 45.328 199.044 45.008C198.916 44.6667 198.852 44.2293 198.852 43.696V34.096C198.852 33.6053 198.937 33.1893 199.108 32.848C199.3 32.4853 199.566 32.1653 199.908 31.888C200.249 31.6107 200.665 31.3653 201.156 31.152C201.668 30.9173 202.212 30.7147 202.788 30.544C203.364 30.3733 203.961 30.2453 204.58 30.16C205.198 30.0533 205.817 30 206.436 30C207.46 30 208.27 30.2027 208.868 30.608C209.465 30.992 209.764 31.632 209.764 32.528C209.764 32.8267 209.721 33.1253 209.636 33.424C209.55 33.7013 209.444 33.9573 209.316 34.192C208.868 34.192 208.409 34.2133 207.94 34.256C207.47 34.2987 207.012 34.3627 206.564 34.448C206.116 34.5333 205.689 34.6293 205.284 34.736C204.9 34.8213 204.569 34.928 204.292 35.056V45.968ZM227.51 38.224C227.51 39.5467 227.307 40.7307 226.902 41.776C226.497 42.8 225.921 43.664 225.174 44.368C224.449 45.072 223.574 45.6053 222.55 45.968C221.526 46.3307 220.385 46.512 219.126 46.512C217.867 46.512 216.726 46.32 215.702 45.936C214.678 45.552 213.793 45.008 213.046 44.304C212.321 43.5787 211.755 42.704 211.35 41.68C210.945 40.656 210.742 39.504 210.742 38.224C210.742 36.9653 210.945 35.824 211.35 34.8C211.755 33.776 212.321 32.912 213.046 32.208C213.793 31.4827 214.678 30.928 215.702 30.544C216.726 30.16 217.867 29.968 219.126 29.968C220.385 29.968 221.526 30.1707 222.55 30.576C223.574 30.96 224.449 31.5147 225.174 32.24C225.921 32.944 226.497 33.808 226.902 34.832C227.307 35.856 227.51 36.9867 227.51 38.224ZM216.31 38.224C216.31 39.5253 216.555 40.528 217.046 41.232C217.558 41.9147 218.262 42.256 219.158 42.256C220.054 42.256 220.737 41.904 221.206 41.2C221.697 40.496 221.942 39.504 221.942 38.224C221.942 36.944 221.697 35.9627 221.206 35.28C220.715 34.576 220.022 34.224 219.126 34.224C218.23 34.224 217.537 34.576 217.046 35.28C216.555 35.9627 216.31 36.944 216.31 38.224Z" fill="#EC243C"/>
<path opacity="0.35" fill-rule="evenodd" clip-rule="evenodd" d="M50.579 17.1464L56.1999 27.4232C56.7673 28.4592 57.6152 29.3071 58.6512 29.8744L68.9279 35.4953C71.2343 36.7564 71.2343 40.0679 68.9279 41.329L58.6512 46.9499C57.6152 47.5172 56.7673 48.3652 56.1999 49.4012L50.579 59.6779C49.3179 61.9842 46.0064 61.9842 44.7454 59.6779L39.1244 49.4012C38.5571 48.3652 37.7092 47.5172 36.6732 46.9499L26.3964 41.329C24.0901 40.0679 24.0901 36.7564 26.3964 35.4953L36.6732 29.8744C37.7092 29.3071 38.5571 28.4592 39.1244 27.4232L44.7454 17.1464C46.0064 14.8401 49.3179 14.8401 50.579 17.1464Z" fill="#BC142C"/>
<path fill-rule="evenodd" clip-rule="evenodd" d="M21.0283 7.82858L23.051 12.5122C23.3285 13.1566 23.8434 13.6715 24.4878 13.949L29.1714 15.9717C31.3883 16.9275 31.3883 20.0725 29.1714 21.0314L24.4878 23.051C23.8434 23.3285 23.3285 23.8434 23.051 24.4878L21.0283 29.1714C20.0725 31.3883 16.9275 31.3883 15.9686 29.1714L13.949 24.4878C13.6715 23.8434 13.1566 23.3285 12.5122 23.051L7.82858 21.0283C5.61166 20.0725 5.61166 16.9275 7.82858 15.9686L12.5122 13.9459C13.1566 13.6684 13.6715 13.1535 13.949 12.5091L15.9717 7.82858C16.9275 5.61166 20.0725 5.61166 21.0283 7.82858Z" fill="#BC142C"/>
<path fill-rule="evenodd" clip-rule="evenodd" d="M14.2296 47.4957L15.7466 51.0076C15.9563 51.4917 16.3417 51.8771 16.8258 52.0868L20.3377 53.6038C21.9996 54.3222 21.9996 56.6809 20.3377 57.3963L16.8258 58.9133C16.3417 59.1229 15.9563 59.5083 15.7466 59.9924L14.2296 63.5043C13.5112 65.1663 11.1524 65.1663 10.4371 63.5043L8.9201 59.9924C8.71043 59.5083 8.32502 59.1229 7.84093 58.9133L4.32902 57.3963C2.6671 56.6778 2.6671 54.3191 4.32902 53.6038L7.84093 52.0868C8.32502 51.8771 8.71043 51.4917 8.9201 51.0076L10.4371 47.4957C11.1555 45.8338 13.5112 45.8338 14.2296 47.4957Z" fill="#BC142C"/>
</svg>
